<svg viewBox="0 0 260 90" xmlns="http://www.w3.org/2000/svg">
  <!-- Bold text with integrated stairs in the A - with padding -->

  <!-- Yellow background shape -->
  <rect x="15" y="18" width="230" height="54" fill="#FDE047" stroke="#231F20" stroke-width="3" rx="3"/>

  <!-- WALK-UP with custom A as stairs -->
  <g fill="#231F20">
    <!-- W -->
    <path d="M25 28 L32 60 L39 40 L46 60 L53 28" fill="none" stroke="#231F20" stroke-width="5" stroke-linecap="round" stroke-linejoin="round"/>

    <!-- A as stairs -->
    <path d="M62 60 L62 50 L70 50 L70 40 L78 40 L78 28 L86 28 L86 60" fill="none" stroke="#231F20" stroke-width="4" stroke-linejoin="round" stroke-linecap="round"/>

    <!-- L -->
    <path d="M95 28 L95 60 L110 60" fill="none" stroke="#231F20" stroke-width="5" stroke-linecap="round" stroke-linejoin="round"/>

    <!-- K -->
    <path d="M118 28 L118 60 M118 44 L132 28 M118 44 L132 60" fill="none" stroke="#231F20" stroke-width="5" stroke-linecap="round" stroke-linejoin="round"/>

    <!-- hyphen -->
    <path d="M140 44 L150 44" stroke="#231F20" stroke-width="5" stroke-linecap="round"/>

    <!-- U -->
    <path d="M158 28 L158 52 Q158 60 168 60 Q178 60 178 52 L178 28" fill="none" stroke="#231F20" stroke-width="5" stroke-linecap="round"/>

    <!-- P -->
    <path d="M188 60 L188 28 Q188 28 198 28 Q208 28 208 38 Q208 48 198 48 L188 48" fill="none" stroke="#231F20" stroke-width="5" stroke-linecap="round" stroke-linejoin="round"/>
  </g>

  <!-- PROS smaller below -->
  <text x="215" y="66" font-family="Arial, sans-serif" font-size="12" font-weight="700" fill="#231F20" transform="rotate(-90, 230, 55)">PROS</text>
</svg>
